<svg xmlns="http://www.w3.org/2000/svg" viewBox="0 0 2844 1600">
  <defs>
    <linearGradient id="g1" x1="0" y1="0" x2="1" y2="0">
      <stop offset="0" stop-color="#0f766e"/>
      <stop offset="1" stop-color="#5eead4"/>
    </linearGradient>
    <linearGradient id="g2" x1="0" y1="0" x2="0" y2="1">
      <stop offset="0" stop-color="#c2410c"/>
      <stop offset="1" stop-color="#fdba74"/>
    </linearGradient>
    <linearGradient id="g3" x1="0" y1="0" x2="1" y2="0">
      <stop offset="0" stop-color="#4f46e5"/>
      <stop offset="1" stop-color="#a5b4fc"/>
    </linearGradient>
  </defs>
  <rect width="2844" height="1600" fill="#12161a"/>
  <g transform="rotate(2 1422.0 800.0)">
    <path d="M -200 856 C 512 520, 1194 996, 1479 828 S 2417 1052, 3044 744 L 3044 1800 L -200 1800 Z" fill="url(#g1)" opacity="0.55"/>
  </g>
  <g transform="rotate(-2 1422.0 800.0)">
    <path d="M -200 928 C 512 1376, 1194 832, 1479 1040 S 2417 896, 3044 1280 L 3044 1800 L -200 1800 Z" fill="url(#g2)" opacity="0.45"/>
  </g>
  <g transform="rotate(1.0 1422.0 800.0)">
    <path d="M -200 1456 C 512 1168, 1194 1576, 1479 1432 S 2417 1624, 3044 1360 L 3044 1800 L -200 1800 Z" fill="url(#g3)" opacity="0.5"/>
  </g>
  <circle cx="2400" cy="300" r="120" fill="#5eead4" opacity="0.18"/>
  <circle cx="450" cy="350" r="80" fill="#5eead4" opacity="0.18"/>
</svg>
