<svg xmlns="http://www.w3.org/2000/svg" viewBox="0 0 2844 1600">
  <defs>
    <linearGradient id="g1" x1="0" y1="0" x2="1" y2="0">
      <stop offset="0" stop-color="#4f46e5"/>
      <stop offset="1" stop-color="#a5b4fc"/>
    </linearGradient>
    <linearGradient id="g2" x1="0" y1="0" x2="0" y2="1">
      <stop offset="0" stop-color="#0f766e"/>
      <stop offset="1" stop-color="#5eead4"/>
    </linearGradient>
    <linearGradient id="g3" x1="0" y1="0" x2="1" y2="0">
      <stop offset="0" stop-color="#c2410c"/>
      <stop offset="1" stop-color="#fdba74"/>
    </linearGradient>
  </defs>
  <rect width="2844" height="1600" fill="#12161a"/>
  <g transform="rotate(-1 1422.0 800.0)">
    <path d="M -200 632 C 512 1024, 1194 548, 1479 730 S 2417 604, 3044 940 L 3044 1800 L -200 1800 Z" fill="url(#g1)" opacity="0.55"/>
  </g>
  <g transform="rotate(1 1422.0 800.0)">
    <path d="M -200 1184 C 512 800, 1194 1344, 1479 1152 S 2417 1408, 3044 1056 L 3044 1800 L -200 1800 Z" fill="url(#g2)" opacity="0.45"/>
  </g>
  <g transform="rotate(-0.5 1422.0 800.0)">
    <path d="M -200 1264 C 512 1600, 1194 1192, 1479 1348 S 2417 1240, 3044 1528 L 3044 1800 L -200 1800 Z" fill="url(#g3)" opacity="0.5"/>
  </g>
  <circle cx="2400" cy="300" r="120" fill="#a5b4fc" opacity="0.18"/>
  <circle cx="450" cy="350" r="80" fill="#a5b4fc" opacity="0.18"/>
</svg>
